<?xml version="1.0" encoding="utf-8"?>
<!-- Generator: Adobe Illustrator 15.0.2, SVG Export Plug-In . SVG Version: 6.00 Build 0)  -->
<!DOCTYPE svg PUBLIC "-//W3C//DTD SVG 1.1//EN" "http://www.w3.org/Graphics/SVG/1.1/DTD/svg11.dtd">
<svg version="1.1" id="Layer_1" xmlns="http://www.w3.org/2000/svg" xmlns:xlink="http://www.w3.org/1999/xlink" x="0px" y="0px"
	 width="1062.069px" height="434.042px" viewBox="0 0 1062.069 434.042" enable-background="new 0 0 1062.069 434.042"
	 xml:space="preserve">
<g>
	<path fill="#FFFFFF" d="M162.353,271.488l-1.344,2.66c-2.016,1.82-3.696,1.54-5.544,1.54c-2.016,0-3.36,0.14-5.208-0.42
		c-3.528-0.98-5.208-0.84-8.568-2.52c-1.344-0.7-3.36-2.24-5.544-3.22s-3.528-4.2-5.712-5.88c-4.368-3.36-8.064-9.94-10.416-14.7
		c-3.528-6.86-3.024-10.36-5.208-16.8c-2.016-3.08-3.36-11.2-3.36-13.44c0-1.26-0.336-4.48-0.336-5.6c0-2.66-0.336-9.52-0.336-11.9
		c0-17.64,2.016-28.7,9.576-45.5c2.016-4.48,4.2-9.24,8.904-12.46c1.68-1.12,6.384-3.5,8.568-3.5c10.416,0,12.432,7.84,12.432,14.84
		c0,13.16-4.368,27.3-10.752,39.2c-2.688,5.04-12.6,20.86-12.6,25.2c0,2.24,1.008,4.76,1.512,7.14
		c3.528,17.22,3.696,33.18,20.664,45.5c0.84,0.7,2.184,0.7,3.192,0.7c3.696,0,6.384-0.14,8.736-2.24L162.353,271.488z
		 M144.377,145.488c-0.168-0.42-0.672-0.98-1.176-0.98c-0.84,0-1.848,0.14-2.52,0.56c-2.688,1.68-4.704,3.78-5.376,6.44
		c-0.672,2.38-1.68,4.62-2.352,6.86c-0.504,2.1-1.176,4.2-2.184,6.16c-1.344,2.94-2.352,5.88-2.856,8.96
		c-0.672,4.34-1.344,8.68-1.848,13.02c-0.336,2.52-0.504,4.9-0.672,7.28c-0.168,1.68-0.336,3.22-0.336,4.9
		c-0.168,0.42,0,0.98,0.168,1.54c0,0.56,0.336,0.98,0.336,1.54c0,1.54,0,3.22,0.168,4.76c0,0.42,0.336,0.7,0.672,1.26
		c1.008-1.96,1.848-3.64,2.856-5.18c1.512-2.8,3.192-5.32,4.368-8.12c1.008-2.66,3.192-4.9,3.024-7.7c0-0.42,0.168-0.7,0.336-1.12
		c1.68-3.08,3.192-6.02,4.704-9.1c0.84-1.82,1.68-3.78,2.016-5.88c1.008-4.34,1.848-8.82,2.352-13.3
		C146.561,153.329,145.889,149.408,144.377,145.488z"/>
	<path fill="#FFFFFF" d="M155.464,228.648l-1.344-1.4c1.344-1.68,2.184-3.78,3.528-5.46c1.344-0.98,3.192-1.26,4.872-1.26
		c1.512,0,4.2,0.56,4.2,2.24v16.94c0,3.64-0.168,7.14,0.168,10.92c0.336,0,0.84,0.28,1.176,0.28c3.36,0,24.024-21.42,25.872-25.06
		c0.672-1.54,3.192-6.16,4.872-6.72c0.84,0,1.68,0.28,2.52,0.42v0.42c0,1.12-1.848,4.34-2.52,5.32
		c-0.672,6.3-29.4,33.74-36.96,33.74c-6.216,0-9.576-4.48-9.576-9.24c0-6.58,1.512-12.18,2.184-18.62l-0.336-0.14L155.464,228.648z
		 M161.008,207.228c-2.016,0-3.696-0.98-4.872-2.24l-0.168-1.68c0.672-2.52,1.176-5.04,3.024-7.14l1.344-0.42
		c2.52,1.12,2.856,0.56,5.544,0.56c1.176,0,2.184,0.28,3.024,0.7c0.168,0.42,0.336,0.98,0.336,1.54
		C169.24,200.928,164.2,207.228,161.008,207.228z"/>
	<path fill="#FFFFFF" d="M269.032,229.348c-0.84,2.1-1.512,2.24-2.52,4.2c-0.672,1.26-3.696,4.2-4.536,5.32
		c-2.856,3.36-7.392,9.24-10.583,12.32c-5.544,5.6-19.32,5.18-22.176-4.06c-1.848-5.46-1.344-7.98-1.008-13.16
		c0.504-7-0.504-11.06,0.168-18.06c0-0.98-0.168-2.1-0.168-3.36c-2.688-0.42-3.864,2.24-5.88,3.64c-3.696,2.52-3.024,2.66-5.88,5.6
		c-7.392,7.56-10.08,14.28-13.104,25.34c-1.176,4.2-3.024,8.26-5.544,11.48c-1.176,1.54-4.704,1.54-7.056,0.98
		c-1.848-0.42-1.848-2.66-1.68-4.76c1.008-9.24,1.848-18.34,2.688-27.58c1.176-4.06,1.008-6.58,1.68-10.78
		c1.176-0.28,4.368-0.56,5.376,0.56c1.512,1.54,2.016,2.38,2.52,4.48c0.672,2.94,0,6.3,0.336,9.66c3.528-4.62,8.568-9.1,12.096-13.3
		c5.376-6.44,8.904-7.84,16.464-11.2c2.52-1.12,6.216-2.94,9.576-1.68c1.512,0.7,3.36,3.36,3.864,5.18
		c0.672,3.5,1.008,7.14,0.672,10.5c-0.336,4.62,0,6.3-0.168,11.06c-0.336,5.6,1.68,8.54,1.68,14.28l1.008,0.84
		c1.176-0.84,2.688-1.4,3.696-2.38c4.032-4.06,11.76-10.5,15.792-14.56c0.504-0.56,1.176-0.84,1.848-1.26L269.032,229.348z"/>
	<path fill="#FFFFFF" d="M346.478,232.008c-1.176,1.96-5.88,9.38-7.056,11.34c-0.84,1.4-3.192,7-4.032,8.4
		c-0.84,1.26-1.68,2.52-2.688,3.64c-1.344,1.54-3.192,2.8-4.368,4.48c-1.008,1.4-2.688,2.1-4.2,3.08
		c-2.352,1.26-4.872,1.96-7.56,1.12c-3.024-0.7-7.224-7.84-9.24-10.08c-2.52-2.94-3.864-6.44-4.536-10.22
		c-0.504-2.66-1.512-5.32-2.184-7.84c-0.336-1.12-0.504-2.38-0.672-3.5c-0.336,0-0.504,0-0.672-0.14
		c-0.504,0.84-1.008,1.68-1.512,2.38c-1.008,1.26-2.016,2.52-3.192,3.78c-0.168,0.42-0.504,0.84-0.672,1.12
		c-0.504,0.56-0.84,0.98-1.344,1.54c-0.504,0.42-1.008,0.84-1.344,1.4c-1.344,2.38-2.856,4.62-5.208,6.3
		c-1.512,1.26-2.856,2.8-4.368,4.2c-1.008,0.84-1.848,1.68-3.36,1.82c-1.344,0.28-2.688,0.84-4.032,1.26
		c-3.36,0.98-5.712-0.42-7.56-2.8c-1.008-1.26-1.68-2.52-2.184-3.92c-1.008-3.08-2.184-6.16-2.688-9.38
		c-0.504-3.22-0.504-6.58-0.504-9.8c0-1.96,0.168-4.06,0.504-6.02c0.336-1.54,0.84-2.94,1.344-4.48c0.84-1.68,1.68-3.36,2.352-5.04
		c1.176-2.52,2.52-4.34,5.04-6.44c1.68-1.54,2.688-2.38,4.872-3.36c4.704-1.82,8.736-1.96,13.272,0
		c3.864,1.68,6.216,4.34,7.224,7.28c0.84,2.24,0,4.48-1.176,6.58c-0.504,0.84-2.184,0.84-3.36,0.28
		c-0.168-2.94,1.512-5.46-0.672-7.98c-2.688-3.08-6.888-4.2-11.256-2.94c-0.672,1.12-1.008,1.82-1.344,2.94
		c-0.504,1.4-0.504,2.38-0.84,3.64c-1.848,7.56-1.68,14.98-0.672,22.54c0.336,1.96,0.504,3.92,1.176,5.6
		c0.504,1.54,1.68,2.8,2.688,4.48c1.008-1.26,2.016-2.52,3.024-3.64c1.848-2.1,3.696-3.92,5.544-6.02
		c1.512-1.68,3.024-3.64,4.368-5.46c1.344-1.54,2.352-3.22,3.696-4.9c1.344-1.68,2.52-3.36,2.016-5.88
		c-0.504-2.66-0.84-5.32-1.008-7.98c-0.336-2.38-0.336-4.62-0.168-7c0-1.54-0.168-3.22,0.336-4.62
		c1.008-3.64,0.504-7.14,0.504-10.78c0-0.98-0.672-2.1-0.504-3.22c0-1.4-0.336-2.8-0.168-4.2c0.336-3.36,0.504-6.86,1.512-10.08
		c0.504-2.1,0.504-4.34,1.176-6.44c1.008-3.64,2.016-7.28,3.864-10.64c1.512-2.66,3.864-4.9,6.888-6.3c1.344-0.7,3.528,0,4.704,1.54
		c1.848,2.24,3.864,4.48,5.376,6.86c1.008,1.82,1.512,3.92,1.512,5.88c0.336,2.94,0,5.88-0.168,8.82
		c-0.168,1.54-0.84,3.08-1.008,4.62c-0.672,2.94-1.008,5.88-1.512,8.68c-0.672,2.52-1.344,4.76-2.016,7.14
		c-0.168,0.42-0.504,0.84-0.336,1.26c0,2.66-1.344,4.76-2.688,6.86c-0.84,1.4-1.68,2.94-2.52,4.34c-0.84,1.4,0.168,2.66-0.672,4.06
		c0,0.14-0.336,0.28-0.336,0.42c0.168,1.68,0.336,3.22,0.504,4.9c0,0.42,0.168,0.84,0.168,1.26c0.168,2.38,0.336,10.36,0.672,12.6
		c0.336,2.52,0.672,5.04,1.512,7.42c0.672,2.66,0.504,5.46,1.176,7.98c0.672,2.8,1.848,5.46,3.024,7.98
		c0.84,1.68,2.016,3.08,3.024,4.62c0.672,1.12,1.344,0.84,2.184,0.14c1.512-1.26,2.856-2.52,3.864-4.34
		c1.176-1.96,4.536-7.84,5.88-9.8c0.84-1.12,4.704-8.12,5.544-9.38c1.176-2.1,2.52-4.06,3.696-6.16
		c0.168-0.14,0.168-0.28,0.168-0.42c1.176,0.7,2.184,1.4,3.36,2.1c0.336,0.14,0.672,0.28,1.008,0.42
		C347.317,230.608,346.981,231.308,346.478,232.008z M316.07,157.388c0,0-0.504,0.42-0.672,0.7c-0.504,1.96-1.176,3.92-1.512,5.88
		c-0.168,0.98-0.168,2.1-0.336,3.08c-0.672,2.24-1.512,4.34-1.848,6.44c-0.672,4.34-1.008,8.68-1.512,12.88
		c0,0.42-0.168,0.7-0.168,1.12c0,3.22,0,6.58,0,10.22c0.336-1.12,0.672-1.82,1.008-2.52c0.336-1.26,0.84-2.52,1.344-3.64
		c0.336-1.26,0.84-2.52,1.176-3.64c0.84-3.22,0-6.58,1.344-9.8c0.84-1.82,1.176-3.92,2.184-5.88c1.176-1.96,0.672-4.06,0.336-5.88
		c-0.504-1.68-0.504-3.22,0-4.9c0.168-0.84,0.336-1.96,0.168-2.8C317.414,158.088,316.574,157.809,316.07,157.388z"/>
	<path fill="#FFFFFF" d="M375.709,259.868c-2.52,3.22-5.544,6.3-8.568,9.1c-3.36,2.94-8.4,3.92-12.936,5.18
		c-3.528,0.84-12.432-2.24-14.448-4.76c-2.52-3.22-0.672-8.68,3.36-10.78c3.024-1.68,9.912,0.7,9.072,4.2
		c-1.344,0.56-2.352,0.14-3.528-0.7c-1.68-1.54-2.688-1.4-4.032,0.42c-1.344,1.68-1.176,3.36,0,4.9
		c1.008,0.98,2.016,1.96,2.856,2.94c1.848-0.14,3.528-0.14,5.208-0.28c6.048-0.7,9.408-2.52,10.92-7.42
		c0.168-0.56,0.168-1.4-0.168-2.1c-2.016-3.78-4.368-7.7-7.224-11.2c-1.344-1.82-3.024-3.5-4.536-5.18
		c-1.512-1.54-2.688-3.22-4.368-4.62c-0.672-0.56-1.68-1.12-2.184-1.68s-0.672-1.12-1.176-1.68c-2.856-2.8-5.544-5.74-8.064-8.68
		c-3.528-3.92-3.864-7.84-0.672-12.18c4.032-5.6,9.072-10.08,16.8-12.6c3.528-1.12,5.04-0.28,7.56,1.96
		c5.208,4.9,3.192,9.94,1.176,15.12c-1.176,3.5-3.192,6.72-4.872,10.22c2.688,2.66,5.208,5.32,7.896,7.84
		c5.04,4.76,6.384,10.36,6.384,16.38c0,0.7,0.504,1.26,0.504,1.96c0,0,0.672,1.82,0.84,2.1c1.848-1.4,3.696-3.08,5.712-5.32
		c1.68-2.1,2.856-4.34,3.864-5.88c2.184-3.36,4.536-6.86,6.552-10.22c1.68-2.52,3.192-4.9,4.704-7.42
		c1.68,1.12,0.504,1.54,2.352,2.38C389.485,241.388,382.766,251.188,375.709,259.868z M357.565,208.488
		c-1.008-2.38-3.696-2.94-6.384-1.82c-2.352,1.12-3.528,2.8-4.2,4.76c-2.184,6.02,1.848,10.5,5.544,15.68
		c0.504-0.98,0.84-1.4,1.008-1.82c1.344-4.34,3.024-8.68,4.2-13.16C358.07,211.008,358.07,209.608,357.565,208.488z"/>
	<path fill="#FFFFFF" d="M439.547,240.828c-2.688,3.36-4.2,5.18-7.56,8.12c-2.856,2.66-4.368,4.48-8.232,6.16
		c-4.368,2.1-8.064,2.66-12.432,2.66c-3.192,0-6.384-0.28-9.408-2.1c-1.512-0.84-3.36-1.54-4.536-2.66
		c-1.176-0.98-5.544-4.2-6.552-5.6c-5.208-7.28-5.04-19.88,0.504-27.72c4.2-5.74,13.104-8.82,19.656-8.96
		c2.016-0.14,3.528,0.84,4.872,2.8c6.72,10.64,1.176,20.58-4.2,30.52c-0.504,0.98-1.176,1.82-1.68,2.8
		c4.872,3.5,12.768,3.78,18.984-0.42c4.2-2.94,9.24-8.54,12.432-13.02c1.344-1.82,2.016-3.5,3.864-5.04
		c0.336-0.28,1.344-1.68,1.68-1.68c1.176-0.28,0.504,1.96,0.168,2.52C444.923,233.688,443.075,236.628,439.547,240.828z
		 M408.132,219.828c-5.712,7.98-8.736,14.14-1.344,23.38c3.528-8.54,8.904-15.96,7.728-25.2
		C411.996,217.028,409.476,217.728,408.132,219.828z"/>
	<path fill="#FFFFFF" d="M488.602,256.088c-0.168,4.62,0,9.1-0.168,13.58c-0.336,4.9-1.008,1.54-1.176,6.3
		c-0.168,4.76,0-4.48-0.84,0.14c-1.176,7.56-3.864,14.98-7.896,21.84c-3.024,5.04-10.416,8.54-16.128,11.48
		c-2.184,0.98-4.368,2.1-6.72,2.52c-2.856,0.42-5.544-0.84-8.4-0.98c-5.712-0.28-12.6-3.36-11.928-9.1c0.168-2.1,1.008-5.46,2.352-7
		c1.68-1.68,6.216-1.96,6.216,0.98c0,1.26-1.344,2.24-2.016,3.36c-1.008,1.82-0.168,4.2,1.512,5.46c1.848,1.4,4.2,1.82,6.552,1.82
		c6.048,0,9.576-2.8,12.768-6.58c3.696-4.34,6.888-7.7,8.4-13.02c2.352-8.12,0.504-2.24,1.344-10.22
		c0.336-2.8,0.504-5.46,0.672-8.12c0.336-6.58,0.336-4.62,0.504-11.2c0-0.56,0-1.4-0.504-1.82c-0.672-0.56-1.512-0.56-2.352-0.28
		c-0.84,0.14-1.512,0.56-2.184,0.98c-3.864,2.38-9.912,3.5-14.28,1.68c-5.208-2.24-9.576-5.88-11.928-10.36
		c-1.68-3.78-2.016-7.84-2.52-11.76c-0.672-4.62-1.848-9.52-2.184-14.14c-0.168-2.52,0.336-5.04,2.184-7.14
		c1.848-1.96,5.04-2.66,8.064-2.66c3.36-0.14,4.2,1.68,4.2,4.34c-0.336,9.94-1.344,19.74-0.504,29.54c0.168,2.1,0.336,4.2,1.68,5.88
		c4.2,5.04,16.632,1.96,19.488-2.8c0.84-1.68,0.84-3.5,0.84-5.32c-0.168-10.08-0.336-20.16-0.504-30.1
		c0-5.32,4.872-10.92,12.264-9.1c1.68,0.42,2.52,1.4,2.184,2.66c-1.68,5.32-0.168,10.64,0,15.82c0.336,6.44,1.008,12.74,1.176,19.18
		C488.938,246.568,488.602,251.328,488.602,256.088z"/>
	<path fill="#FFFFFF" d="M609.056,240.548c-1.008,0.28-1.848,0.56-2.688,0.7c-1.344,0.14-2.52,0.14-3.696,0.42
		c-2.856,0.28-5.712,0.7-8.568,1.12c0,2.1,0.336,4.2,0.168,6.3c-0.168,2.66-0.84,5.18-1.344,7.84c-1.176,4.34-5.04,8.12-9.24,10.92
		c-8.568,5.32-19.824,8.82-29.736,8.26c-8.4-0.42-16.296-3.22-21.672-7.98c-12.096-10.64-10.416-30.1,4.032-41.58
		c5.544-4.34,4.872-4.2,0.672-8.54c-5.376-5.32-12.264-12.88-9.408-20.86c2.52-6.72,10.584-11.2,17.808-13.72
		c2.856-1.12,5.712-1.82,8.736-2.52c3.192-0.56,6.552-0.84,9.744-0.84c4.2,0,8.4,0.42,12.6,0.98c6.384,0.7,11.088,3.64,14.784,7.7
		c4.368,4.76,0.672,11.48-6.888,13.58c-2.352,0.56-5.376-0.14-6.888-1.54c-0.84-0.98-1.176-2.38-0.168-3.5
		c-0.168,0.14,4.368-0.28,5.04-0.56c1.344-0.56,3.696-1.68,3.864-3.08c0-0.42-0.168-0.98-0.336-1.4
		c-0.168-0.56-0.336-0.98-0.672-1.4s-0.84-0.56-1.344-0.7c-11.256-4.62-27.384-6.16-37.8,3.64
		c-11.424,10.64-4.368,19.32,6.888,20.86c3.36,0.56,7.224-0.14,10.92-0.42c2.016-0.14,5.376-1.68,6.552,0.28
		c1.848,3.08-4.2,3.78-6.384,3.92c-16.296,1.26-24.528,10.78-28.56,22.96c-1.008,2.66-0.672,5.6-0.336,8.26
		c1.512,17.36,21.336,25.06,40.992,16.1c8.4-3.78,13.608-12.46,11.592-19.32c-1.344-5.18-5.712-7.56-12.432-6.86
		c-4.368,0.56-8.568,2.38-12.096,5.04c-3.864,2.94-3.36,7,2.016,6.72c1.344-0.14,2.688,0.14,2.52,1.54c0,0.7-0.504,1.26-1.176,1.82
		c-1.344,0.98-3.36,1.4-4.872,0.98c-1.848-0.42-3.024-1.68-4.368-2.66c-1.176-0.98-2.688-1.68-3.192-3.08
		c-0.504-1.4-0.168-3.08,0.84-4.48c1.848-2.94,5.208-5.74,7.896-8.26c2.184-1.96,4.536-3.78,7.392-5.04
		c6.384-2.94,13.44-1.96,19.488-0.56c5.88,1.54,11.592,1.4,17.472-1.82c6.216-3.36,8.568-11.2,4.872-15.68
		c-3.192-3.64-13.608-2.52-16.632,1.96c-0.504,0.84-0.84,2.38-0.336,2.8c0.84,0.56,2.52,0.84,3.528,0.56
		c2.52-0.98,4.032-0.42,4.368,1.4c0.336,2.38-2.352,2.24-4.2,2.52c-3.696,0.7-6.048-0.56-7.056-3.22c-1.344-2.8-1.68-5.6,1.344-8.54
		c5.04-4.48,14.448-5.32,19.824-1.26C622.328,217.168,625.856,235.368,609.056,240.548z"/>
	<path fill="#FFFFFF" d="M729.174,232.008c-1.176,1.96-5.88,9.38-7.056,11.34c-0.84,1.4-3.192,7-4.032,8.4
		c-0.84,1.26-1.68,2.52-2.688,3.64c-1.344,1.54-3.192,2.8-4.369,4.48c-1.008,1.4-2.688,2.1-4.2,3.08
		c-2.352,1.26-4.872,1.96-7.56,1.12c-3.024-0.7-7.224-7.84-9.24-10.08c-2.52-2.94-3.864-6.44-4.536-10.22
		c-0.504-2.66-1.512-5.32-2.184-7.84c-0.336-1.12-0.504-2.38-0.672-3.5c-0.336,0-0.504,0-0.672-0.14
		c-0.504,0.84-1.008,1.68-1.512,2.38c-1.008,1.26-2.016,2.52-3.192,3.78c-0.168,0.42-0.504,0.84-0.672,1.12
		c-0.504,0.56-0.84,0.98-1.344,1.54c-0.504,0.42-1.008,0.84-1.344,1.4c-1.344,2.38-2.856,4.62-5.208,6.3
		c-1.512,1.26-2.856,2.8-4.368,4.2c-1.008,0.84-1.848,1.68-3.36,1.82c-1.344,0.28-2.688,0.84-4.032,1.26
		c-3.36,0.98-5.712-0.42-7.56-2.8c-1.008-1.26-1.68-2.52-2.184-3.92c-1.008-3.08-2.184-6.16-2.688-9.38
		c-0.504-3.22-0.504-6.58-0.504-9.8c0-1.96,0.168-4.06,0.504-6.02c0.336-1.54,0.84-2.94,1.344-4.48c0.84-1.68,1.68-3.36,2.352-5.04
		c1.176-2.52,2.52-4.34,5.04-6.44c1.68-1.54,2.688-2.38,4.872-3.36c4.704-1.82,8.736-1.96,13.272,0
		c3.864,1.68,6.216,4.34,7.224,7.28c0.84,2.24,0,4.48-1.176,6.58c-0.504,0.84-2.184,0.84-3.36,0.28
		c-0.168-2.94,1.512-5.46-0.672-7.98c-2.688-3.08-6.888-4.2-11.256-2.94c-0.672,1.12-1.008,1.82-1.344,2.94
		c-0.504,1.4-0.504,2.38-0.84,3.64c-1.848,7.56-1.68,14.98-0.672,22.54c0.336,1.96,0.504,3.92,1.176,5.6
		c0.504,1.54,1.68,2.8,2.688,4.48c1.008-1.26,2.016-2.52,3.024-3.64c1.848-2.1,3.696-3.92,5.544-6.02
		c1.512-1.68,3.024-3.64,4.368-5.46c1.344-1.54,2.352-3.22,3.696-4.9c1.344-1.68,2.52-3.36,2.016-5.88
		c-0.504-2.66-0.84-5.32-1.008-7.98c-0.336-2.38-0.336-4.62-0.168-7c0-1.54-0.168-3.22,0.336-4.62
		c1.008-3.64,0.504-7.14,0.504-10.78c0-0.98-0.672-2.1-0.504-3.22c0-1.4-0.336-2.8-0.168-4.2c0.336-3.36,0.504-6.86,1.512-10.08
		c0.504-2.1,0.504-4.34,1.176-6.44c1.008-3.64,2.016-7.28,3.864-10.64c1.512-2.66,3.864-4.9,6.888-6.3c1.344-0.7,3.528,0,4.704,1.54
		c1.848,2.24,3.864,4.48,5.376,6.86c1.008,1.82,1.512,3.92,1.512,5.88c0.336,2.94,0,5.88-0.168,8.82
		c-0.168,1.54-0.84,3.08-1.008,4.62c-0.672,2.94-1.008,5.88-1.512,8.68c-0.672,2.52-1.344,4.76-2.016,7.14
		c-0.168,0.42-0.504,0.84-0.336,1.26c0,2.66-1.344,4.76-2.688,6.86c-0.84,1.4-1.68,2.94-2.52,4.34c-0.84,1.4,0.168,2.66-0.672,4.06
		c0,0.14-0.336,0.28-0.336,0.42c0.168,1.68,0.336,3.22,0.504,4.9c0,0.42,0.168,0.84,0.168,1.26c0.168,2.38,0.336,10.36,0.672,12.6
		c0.336,2.52,0.672,5.04,1.512,7.42c0.672,2.66,0.504,5.46,1.176,7.98c0.672,2.8,1.848,5.46,3.024,7.98
		c0.84,1.68,2.016,3.08,3.024,4.62c0.672,1.12,1.344,0.84,2.184,0.14c1.512-1.26,2.856-2.52,3.864-4.34
		c1.176-1.96,4.537-7.84,5.88-9.8c0.84-1.12,4.704-8.12,5.544-9.38c1.176-2.1,2.52-4.06,3.695-6.16
		c0.169-0.14,0.169-0.28,0.169-0.42c1.176,0.7,2.184,1.4,3.359,2.1c0.336,0.14,0.672,0.28,1.008,0.42
		C730.014,230.608,729.678,231.308,729.174,232.008z M698.766,157.388c0,0-0.504,0.42-0.672,0.7c-0.504,1.96-1.176,3.92-1.512,5.88
		c-0.168,0.98-0.168,2.1-0.336,3.08c-0.672,2.24-1.512,4.34-1.848,6.44c-0.672,4.34-1.008,8.68-1.512,12.88
		c0,0.42-0.168,0.7-0.168,1.12c0,3.22,0,6.58,0,10.22c0.336-1.12,0.672-1.82,1.008-2.52c0.336-1.26,0.84-2.52,1.344-3.64
		c0.336-1.26,0.84-2.52,1.176-3.64c0.84-3.22,0-6.58,1.344-9.8c0.84-1.82,1.176-3.92,2.184-5.88c1.176-1.96,0.672-4.06,0.336-5.88
		c-0.504-1.68-0.504-3.22,0-4.9c0.168-0.84,0.336-1.96,0.168-2.8C700.11,158.088,699.27,157.809,698.766,157.388z"/>
	<path fill="#FFFFFF" d="M774.366,240.828c-2.688,3.36-4.2,5.18-7.561,8.12c-2.855,2.66-4.368,4.48-8.231,6.16
		c-4.368,2.1-8.064,2.66-12.433,2.66c-3.191,0-6.384-0.28-9.407-2.1c-1.513-0.84-3.36-1.54-4.536-2.66
		c-1.176-0.98-5.544-4.2-6.552-5.6c-5.208-7.28-5.04-19.88,0.504-27.72c4.199-5.74,13.104-8.82,19.655-8.96
		c2.017-0.14,3.528,0.84,4.872,2.8c6.72,10.64,1.176,20.58-4.2,30.52c-0.504,0.98-1.176,1.82-1.68,2.8
		c4.872,3.5,12.768,3.78,18.984-0.42c4.199-2.94,9.239-8.54,12.432-13.02c1.344-1.82,2.016-3.5,3.864-5.04
		c0.336-0.28,1.344-1.68,1.68-1.68c1.176-0.28,0.504,1.96,0.168,2.52C779.742,233.688,777.894,236.628,774.366,240.828z
		 M742.95,219.828c-5.712,7.98-8.736,14.14-1.345,23.38c3.528-8.54,8.904-15.96,7.729-25.2
		C746.813,217.028,744.294,217.728,742.95,219.828z"/>
	<path fill="#FFFFFF" d="M836.187,225.848c-0.504,2.1-2.184,3.5-3.863,5.04c-0.504,0.56-1.008,1.12-1.848,1.4
		c-2.184,0.56-3.359,2.1-5.041,3.08c-0.504,0.28-1.176,0.7-1.68,0.84c-2.184,0.14-3.863,0.98-5.543,1.82
		c-0.504,0.28-1.176,0.42-1.848,0.42c-1.344,0.14-1.849,0.7-2.185,1.68c-0.168,0.56-0.504,0.98-0.672,1.54
		c-0.504,2.8-3.359,4.76-4.031,7.56c-0.337,0.7-1.177,1.26-1.681,1.96c-0.84,0.98-1.68,2.1-2.352,3.22
		c-1.849,2.52-3.528,5.04-5.376,7.56c-0.504,0.56-1.512,0.84-2.017,1.26c-1.008,0.56-1.68,1.26-2.52,1.82
		c-2.016,1.68-4.536,1.4-7.224,1.12c-0.336,0-0.841-0.14-1.177-0.14c-1.008,0.28-1.512-0.28-1.848-0.98
		c-0.84-1.82-2.52-3.08-3.864-4.48c-1.344-1.54-3.023-2.94-4.031-4.62c-1.177-2.1-2.017-4.48-3.696-6.3
		c-0.168-0.28-0.504-0.56-0.504-0.84c-0.168-0.42,0.168-0.84,0.336-1.12c0.336-0.56,0.504-1.12,0.672-1.68c0-0.14,0-0.42-0.168-0.56
		c-0.336-0.28-0.672-0.28-0.84-0.28c-1.344-0.28-0.672-1.96-0.672-2.66c0-0.42,0.168-0.84,0.168-1.26
		c0.672-4.48,1.008-8.96,2.52-13.3c0.504-1.68,1.344-3.36,1.68-5.18c0.337-1.54,1.177-2.52,2.688-3.22
		c3.192-1.26,7.392-2.94,10.08,0.7c1.344,1.82,0.168,3.22,0.168,5.04c0,2.1-0.336,4.2-0.336,6.3c-0.168,2.94-0.336,5.74-0.336,8.68
		c0,1.4,0.504,2.94,0.672,4.48c0.504,3.36,0.672,6.72,1.008,10.08c0.168,0.7,0.168,1.54,0.504,2.24
		c0.168,0.56,0.504,1.12,0.504,1.68c0,0.42,0,0.98,0.336,1.26c0.504,0.28,1.177,0.14,1.681-0.14c3.527-1.4,4.872-4.48,6.72-7.28
		c0.84-1.26,1.848-2.52,2.688-3.64c0.672-0.84,1.345-1.54,1.849-2.24c1.008-1.82,1.848-3.64,2.688-5.32
		c0.672-0.98,1.344-1.96,1.681-2.94c0.672-1.4,0.504-1.68-1.345-2.38c-2.688-1.12-5.208-2.8-7.224-4.76
		c-2.688-2.8-2.856-6.3-0.672-9.24c1.68-2.38,2.688-4.9,5.376-6.58c2.855-1.68,6.384-2.38,9.912-1.4c1.68,0.56,3.024,2.1,4.032,3.36
		c1.176,1.54,1.68,3.5,1.176,5.32c-0.168,0.7-0.168,1.54-0.168,2.38c0.168,2.24-0.504,4.06-1.512,6.02
		c-0.336,0.42-0.336,0.98-0.168,1.68c1.008-0.56,2.352-1.12,3.359-1.68c2.184-1.4,4.369-2.8,6.385-4.2
		c1.512-1.12,4.703-3.64,6.551-4.48c0.504-0.28,1.008-0.56,1.682-0.28c0.168,0,0.168,0,0.336,0.14c0.336,0.14,0.504,0.42,0.672,0.84
		S836.187,225.428,836.187,225.848z M813.34,217.728c-1.68-0.42-2.52,0.84-3.527,1.68c-2.521,1.96-2.688,4.9-2.185,7.56
		c0.168,1.82,2.185,3.64,3.528,5.46c0.504,0.56,1.344,0.7,1.68-0.14c0.84-1.96,1.68-3.78,2.353-5.6c0.84-2.38,1.344-4.62,0.84-7.14
		C815.692,217.728,815.524,217.728,813.34,217.728z"/>
	<path fill="#FFFFFF" d="M834.675,228.648l-1.344-1.4c1.344-1.68,2.184-3.78,3.527-5.46c1.344-0.98,3.191-1.26,4.873-1.26
		c1.512,0,4.199,0.56,4.199,2.24v16.94c0,3.64-0.168,7.14,0.168,10.92c0.336,0,0.84,0.28,1.176,0.28
		c3.359,0,24.023-21.42,25.871-25.06c0.674-1.54,3.193-6.16,4.873-6.72c0.84,0,1.68,0.28,2.52,0.42v0.42
		c0,1.12-1.848,4.34-2.52,5.32c-0.672,6.3-29.4,33.74-36.959,33.74c-6.217,0-9.576-4.48-9.576-9.24c0-6.58,1.512-12.18,2.184-18.62
		l-0.336-0.14L834.675,228.648z M840.218,207.228c-2.016,0-3.695-0.98-4.871-2.24l-0.168-1.68c0.672-2.52,1.176-5.04,3.023-7.14
		l1.344-0.42c2.521,1.12,2.857,0.56,5.545,0.56c1.176,0,2.184,0.28,3.023,0.7c0.168,0.42,0.336,0.98,0.336,1.54
		C848.451,200.928,843.412,207.228,840.218,207.228z"/>
	<path fill="#FFFFFF" d="M948.242,229.348c-0.84,2.1-1.512,2.24-2.52,4.2c-0.672,1.26-3.695,4.2-4.535,5.32
		c-2.857,3.36-7.393,9.24-10.584,12.32c-5.545,5.6-19.32,5.18-22.176-4.06c-1.85-5.46-1.346-7.98-1.01-13.16
		c0.506-7-0.504-11.06,0.168-18.06c0-0.98-0.168-2.1-0.168-3.36c-2.688-0.42-3.863,2.24-5.879,3.64
		c-3.695,2.52-3.023,2.66-5.881,5.6c-7.391,7.56-10.08,14.28-13.104,25.34c-1.176,4.2-3.023,8.26-5.543,11.48
		c-1.176,1.54-4.705,1.54-7.057,0.98c-1.848-0.42-1.848-2.66-1.68-4.76c1.008-9.24,1.848-18.34,2.688-27.58
		c1.176-4.06,1.008-6.58,1.68-10.78c1.176-0.28,4.369-0.56,5.377,0.56c1.512,1.54,2.016,2.38,2.52,4.48c0.672,2.94,0,6.3,0.336,9.66
		c3.527-4.62,8.568-9.1,12.096-13.3c5.377-6.44,8.904-7.84,16.465-11.2c2.52-1.12,6.215-2.94,9.576-1.68
		c1.512,0.7,3.359,3.36,3.863,5.18c0.672,3.5,1.008,7.14,0.672,10.5c-0.336,4.62,0,6.3-0.168,11.06c-0.336,5.6,1.68,8.54,1.68,14.28
		l1.008,0.84c1.176-0.84,2.688-1.4,3.697-2.38c4.031-4.06,11.76-10.5,15.791-14.56c0.504-0.56,1.176-0.84,1.848-1.26
		L948.242,229.348z"/>
</g>
<path fill="none" stroke="#FFFFFF" stroke-width="3" stroke-miterlimit="10" d="M646.917,308.696
	c17.256-2.873,24.873-14.564,24.873-14.564s20.117,17.652,31.375,17.564c19.685-0.154,29.997-18,29.997-18s20.161,18.107,33.749,18
	c19.703-0.156,29.999-18,29.999-18s48.747,28.047,48.747,15"/>
<path fill="none" stroke="#FFFFFF" stroke-width="3" stroke-miterlimit="10" d="M802.109,347.315
	c17.256-2.873,24.874-14.564,24.874-14.564s20.114,17.652,31.371,17.564c19.688-0.156,29.998-18,29.998-18s20.162,18.107,33.748,18"
	/>
<path fill="none" stroke="#FFFFFF" stroke-width="3" stroke-miterlimit="10" d="M484.777,346.854
	c17.256-2.873,24.874-14.564,24.874-14.564s20.116,17.652,31.374,17.564c19.686-0.156,29.998-18,29.998-18s20.16,18.107,33.75,18
	c19.701-0.156,29.996-18,29.996-18s48.748,28.047,48.748,15"/>
<line fill="none" stroke="#FFFFFF" stroke-width="3" stroke-miterlimit="10" x1="200.993" y1="106.892" x2="200.993" y2="192.101"/>
<line fill="none" stroke="#FFFFFF" stroke-width="3" stroke-miterlimit="10" x1="201.992" y1="105.489" x2="181.986" y2="125.892"/>
<line fill="none" stroke="#FFFFFF" stroke-width="3" stroke-miterlimit="10" x1="201.992" y1="123.689" x2="179.489" y2="140.49"/>
<line fill="none" stroke="#FFFFFF" stroke-width="3" stroke-miterlimit="10" x1="199.917" y1="105.891" x2="218.341" y2="124.043"/>
<line fill="none" stroke="#FFFFFF" stroke-width="3" stroke-miterlimit="10" x1="199.917" y1="124.242" x2="219.417" y2="139.242"/>
<line fill="none" stroke="#FFFFFF" stroke-width="3" stroke-miterlimit="10" x1="181.743" y1="151.841" x2="201.992" y2="138.642"/>
<line fill="none" stroke="#FFFFFF" stroke-width="3" stroke-miterlimit="10" x1="199.917" y1="138.642" x2="220.167" y2="153.041"/>
<line fill="none" stroke="#FFFFFF" stroke-width="3" stroke-miterlimit="10" x1="136.993" y1="43.89" x2="136.993" y2="129.1"/>
<line fill="none" stroke="#FFFFFF" stroke-width="3" stroke-miterlimit="10" x1="137.99" y1="61.688" x2="115.487" y2="78.491"/>
<line fill="none" stroke="#FFFFFF" stroke-width="3" stroke-miterlimit="10" x1="135.917" y1="62.241" x2="155.417" y2="77.241"/>
<line fill="none" stroke="#FFFFFF" stroke-width="3" stroke-miterlimit="10" x1="117.741" y1="89.841" x2="137.99" y2="76.642"/>
<line fill="none" stroke="#FFFFFF" stroke-width="3" stroke-miterlimit="10" x1="135.917" y1="76.642" x2="156.167" y2="91.04"/>
<line fill="none" stroke="#FFFFFF" stroke-width="3" stroke-miterlimit="10" x1="90.993" y1="84.892" x2="90.993" y2="170.101"/>
<line fill="none" stroke="#FFFFFF" stroke-width="3" stroke-miterlimit="10" x1="91.99" y1="82.89" x2="71.984" y2="103.292"/>
<line fill="none" stroke="#FFFFFF" stroke-width="3" stroke-miterlimit="10" x1="91.99" y1="101.688" x2="69.487" y2="118.492"/>
<line fill="none" stroke="#FFFFFF" stroke-width="3" stroke-miterlimit="10" x1="89.917" y1="82.89" x2="108.341" y2="101.042"/>
<line fill="none" stroke="#FFFFFF" stroke-width="3" stroke-miterlimit="10" x1="89.917" y1="102.241" x2="109.417" y2="117.242"/>
<line fill="none" stroke="#FFFFFF" stroke-width="3" stroke-miterlimit="10" x1="71.741" y1="129.841" x2="91.99" y2="116.642"/>
<line fill="none" stroke="#FFFFFF" stroke-width="3" stroke-miterlimit="10" x1="89.917" y1="116.642" x2="110.167" y2="131.041"/>
<g>
	<path fill="#FFFFFF" d="M174.357,329.894v-1.98h7.488c2.952,0,5.142,0.504,6.57,1.512c1.427,1.008,2.142,2.91,2.142,5.706
		s-0.738,4.86-2.214,6.192s-3.642,1.998-6.498,1.998h-2.772v7.812h2.556v1.98h-7.272v-1.98h2.268v-21.24H174.357z M181.666,329.894
		h-2.592v11.448h2.592c2.16,0,3.773-0.474,4.842-1.422c1.068-0.948,1.602-2.496,1.602-4.644s-0.528-3.582-1.584-4.302
		C185.469,330.254,183.849,329.894,181.666,329.894z"/>
	<path fill="#FFFFFF" d="M200.025,329.894v-1.98h15.3l-0.036,0.216l0.468,4.968l-1.8,0.288l-0.432-3.492h-8.856v9.648h7.848v-2.268
		h1.98v6.192h-1.98v-1.944h-7.848v9.612h9.828l0.54-4.5l1.764,0.18l-0.54,6.3h-16.236v-1.98h2.196v-21.24H200.025z"/>
	<path fill="#FFFFFF" d="M233.469,350.99c2.664,0,4.644-0.671,5.94-2.016c0.744-0.768,1.116-1.68,1.116-2.736
		c0-1.056-0.258-1.926-0.774-2.61c-0.517-0.684-1.183-1.212-1.998-1.584c-0.816-0.372-1.723-0.696-2.718-0.972
		c-0.996-0.275-1.992-0.57-2.988-0.882c-0.996-0.312-1.902-0.684-2.718-1.116c-0.816-0.432-1.482-1.044-1.998-1.836
		c-0.517-0.792-0.774-1.74-0.774-2.844c0-1.919,0.72-3.492,2.16-4.716s3.348-1.836,5.724-1.836s4.608,0.24,6.696,0.72v0.036h0.108
		l0.396,4.5l-1.764,0.288l-0.396-3.024c-1.344-0.24-2.826-0.36-4.446-0.36c-1.62,0-3.03,0.354-4.23,1.062s-1.8,1.71-1.8,3.006
		s0.48,2.28,1.44,2.952c0.959,0.672,2.124,1.182,3.492,1.53c1.368,0.348,2.736,0.738,4.104,1.17
		c1.368,0.432,2.532,1.176,3.492,2.232c0.96,1.057,1.44,2.448,1.44,4.176c0,2.328-0.864,4.08-2.592,5.256
		c-1.728,1.176-3.876,1.764-6.444,1.764c-3.24,0-5.953-0.732-8.136-2.196l0.036-3.816l1.764-0.18l0.072,2.736
		C229.497,350.558,231.429,350.99,233.469,350.99z"/>
	<path fill="#FFFFFF" d="M263.061,329.858c-2.712,0-4.86,1.008-6.444,3.024s-2.376,4.92-2.376,8.712c0,1.632,0.167,3.06,0.504,4.284
		c0.336,1.224,0.75,2.172,1.242,2.844c0.492,0.672,1.098,1.201,1.818,1.584c1.152,0.648,2.496,0.972,4.032,0.972
		c2.376,0,4.752-0.264,7.128-0.792l0.432,1.872c-0.408,0.144-1.494,0.33-3.258,0.558c-1.764,0.228-3.199,0.342-4.302,0.342
		c-1.104,0-2.064-0.078-2.88-0.234c-0.816-0.156-1.68-0.486-2.592-0.99c-0.913-0.504-1.687-1.17-2.322-1.998
		c-0.636-0.828-1.17-1.962-1.602-3.402s-0.648-3.12-0.648-5.04c0-4.248,0.972-7.56,2.916-9.936c2.04-2.496,4.824-3.744,8.352-3.744
		c1.08,0,2.25,0.103,3.51,0.306c1.26,0.204,2.154,0.402,2.682,0.594l0.432,5.184l-1.764,0.252l-0.504-3.888
		C265.881,330.026,264.429,329.858,263.061,329.858z"/>
	<path fill="#FFFFFF" d="M294.993,353.114v-1.98h2.196l-1.656-4.68h-11.088l-1.62,4.68h2.592v1.98h-7.272v-1.98h2.376l8.388-23.22
		h2.196l8.676,23.22h2.484v1.98H294.993z M289.881,330.65l-4.824,14.004h9.828L289.881,330.65z"/>
	<path fill="#FFFFFF" d="M311.481,329.894v-1.98h8.676c3.24,0,5.837,0.942,7.794,2.826c1.956,1.884,2.934,4.95,2.934,9.198
		c0,4.2-0.684,7.344-2.052,9.432c-1.2,1.824-3.072,2.977-5.616,3.456c-1.128,0.192-2.448,0.288-3.96,0.288h-7.776v-1.98h2.196
		v-21.24H311.481z M319.977,329.894h-3.852v21.24h2.952c3.191,0,5.388-0.588,6.588-1.764c1.272-1.224,2.088-2.88,2.448-4.968
		c0.216-1.224,0.324-2.652,0.324-4.284c0-3.6-0.786-6.204-2.358-7.812C324.507,330.698,322.473,329.894,319.977,329.894z"/>
	<path fill="#FFFFFF" d="M340.605,329.894v-1.98h15.3l-0.036,0.216l0.468,4.968l-1.8,0.288l-0.432-3.492h-8.856v9.648h7.848v-2.268
		h1.98v6.192h-1.98v-1.944h-7.848v9.612h9.828l0.54-4.5l1.764,0.18l-0.54,6.3h-16.236v-1.98h2.196v-21.24H340.605z"/>
	<path fill="#FFFFFF" d="M366.921,329.894v-1.98h8.676c2.472,0,4.379,0.54,5.724,1.62c1.344,1.08,2.016,2.688,2.016,4.824
		c0,1.416-0.498,2.886-1.494,4.41c-0.997,1.524-1.975,2.562-2.934,3.114l5.688,9.252h2.556v1.98h-3.96l-6.408-10.332h-5.22v8.352
		h2.628v1.98h-7.272v-1.98h2.196v-21.24H366.921z M375.417,329.894h-3.852v10.908h5.94c2.256-2.064,3.384-4.14,3.384-6.228
		c0-1.536-0.468-2.7-1.404-3.492C378.549,330.29,377.193,329.894,375.417,329.894z"/>
	<path fill="#FFFFFF" d="M395.469,340.586c0-3.912,1.014-7.026,3.042-9.342c2.028-2.316,4.554-3.474,7.578-3.474
		c7.08,0,10.62,4.272,10.62,12.816c0,3.888-1.008,6.972-3.024,9.252c-2.016,2.28-4.548,3.42-7.596,3.42
		C399.009,353.258,395.469,349.034,395.469,340.586z M397.917,340.514c0,7.056,2.724,10.584,8.172,10.584
		c2.352,0,4.302-0.936,5.85-2.808c1.548-1.872,2.322-4.464,2.322-7.776c0-7.056-2.724-10.584-8.172-10.584
		c-2.353,0-4.302,0.942-5.85,2.826C398.691,334.64,397.917,337.226,397.917,340.514z"/>
</g>
<g>
	<g>
		<path fill="#FFFFFF" d="M786.584,125.087l-0.036-1.764l5.76-1.296h2.268v23.832h-2.268v-22.068L786.584,125.087z"/>
		<path fill="#FFFFFF" d="M816.032,146.003c-2.712,0-4.968-1.025-6.768-3.077c-1.8-2.053-2.7-5.082-2.7-9.091
			c0-4.008,0.923-7.133,2.772-9.378c1.848-2.243,4.122-3.365,6.822-3.365c2.701,0,4.957,1.05,6.768,3.149
			c1.812,2.101,2.718,5.13,2.718,9.09s-0.924,7.062-2.771,9.307C821.024,144.882,818.744,146.003,816.032,146.003z M816.158,123.071
			c-1.98,0-3.666,0.942-5.058,2.826c-1.393,1.885-2.088,4.513-2.088,7.884c0,3.372,0.672,5.922,2.016,7.65
			c1.344,1.728,3.018,2.592,5.022,2.592s3.695-0.941,5.076-2.826c1.38-1.884,2.07-4.494,2.07-7.83c0-3.335-0.679-5.886-2.034-7.649
			C819.806,123.953,818.138,123.071,816.158,123.071z"/>
		<path fill="#FFFFFF" d="M835.328,144.815c0-0.456,0.113-0.815,0.342-1.08c0.229-0.264,0.534-0.396,0.918-0.396
			c0.84,0,1.261,0.492,1.261,1.476c0,0.408-0.12,0.732-0.36,0.972c-0.24,0.24-0.539,0.36-0.9,0.36
			C835.748,146.147,835.328,145.703,835.328,144.815z"/>
		<path fill="#FFFFFF" d="M851.492,134.195v-1.62c1.32,0,2.316,0.013,2.988,0.036c1.319-0.239,2.459-0.792,3.42-1.656
			c0.408-0.336,0.756-0.821,1.044-1.458c0.288-0.636,0.433-1.386,0.433-2.25c0-0.863-0.318-1.638-0.955-2.321
			c-0.636-0.685-1.662-1.026-3.078-1.026c-0.863,0-1.781,0.132-2.754,0.396c-0.972,0.265-1.722,0.528-2.25,0.792l-0.828,0.396
			l-0.611-1.8c0.744-0.433,1.77-0.84,3.078-1.225c1.308-0.383,2.489-0.575,3.546-0.575c1.848,0,3.36,0.444,4.536,1.332
			s1.764,2.172,1.764,3.852c0,2.712-1.428,4.68-4.283,5.904c2.951,0.72,4.428,2.604,4.428,5.651c0,2.497-0.853,4.345-2.557,5.544
			c-1.704,1.201-4.08,1.801-7.128,1.801c-1.584,0-3.084-0.192-4.5-0.576l0.576-1.872c0.96,0.312,2.196,0.468,3.708,0.468
			c2.399,0,4.242-0.438,5.525-1.313c1.284-0.876,1.927-2.19,1.927-3.942c0-1.536-0.444-2.604-1.332-3.204
			c-0.48-0.312-0.931-0.563-1.351-0.756s-1.002-0.336-1.746-0.432C854.132,134.244,852.931,134.195,851.492,134.195z"/>
		<path fill="#FFFFFF" d="M870.716,125.087l-0.037-1.764l5.761-1.296h2.268v23.832h-2.268v-22.068L870.716,125.087z"/>
		<path fill="#FFFFFF" d="M892.099,144.815c0-0.456,0.113-0.815,0.342-1.08c0.229-0.264,0.534-0.396,0.918-0.396
			c0.84,0,1.261,0.492,1.261,1.476c0,0.408-0.12,0.732-0.36,0.972c-0.24,0.24-0.539,0.36-0.9,0.36
			C892.519,146.147,892.099,145.703,892.099,144.815z"/>
		<path fill="#FFFFFF" d="M904.232,125.087l-0.037-1.764l5.761-1.296h2.268v23.832h-2.268v-22.068L904.232,125.087z"/>
		<path fill="#FFFFFF" d="M936.918,138.623c0,2.497-0.853,4.345-2.556,5.544c-1.705,1.201-4.08,1.801-7.128,1.801
			c-1.584,0-3.085-0.192-4.5-0.576l0.575-1.872c0.961,0.312,2.197,0.468,3.709,0.468c2.399,0,4.242-0.438,5.525-1.313
			s1.926-2.19,1.926-3.942c0-1.536-0.467-2.604-1.403-3.204c-0.48-0.312-0.942-0.563-1.386-0.756
			c-0.445-0.192-1.062-0.336-1.854-0.432c-0.984-0.096-2.231-0.145-3.744-0.145h-0.396l0.72-12.168h10.296l0.469,5.184l-1.801,0.288
			l-0.432-3.491h-6.264l-0.504,8.567c3.312,0,5.615,0.517,6.911,1.548c0.505,0.433,0.937,1.026,1.296,1.782
			C936.739,136.661,936.918,137.567,936.918,138.623z"/>
	</g>
</g>
<line fill="none" stroke="#FFFFFF" stroke-width="3" stroke-miterlimit="10" x1="137.99" y1="43.131" x2="117.984" y2="63.534"/>
<line fill="none" stroke="#FFFFFF" stroke-width="3" stroke-miterlimit="10" x1="135.917" y1="43.131" x2="154.342" y2="61.284"/>
</svg>
